Coordinates
version=1
nRows=31
nColumns=38
inDegrees=no

Units are S.I. units (second, meters, Newtons, ...)
If the header above contains a line with 'inDegrees', this indicates whether rotational values are in degrees (yes) or radians (no).

endheader
time	pelvis_tilt	pelvis_list	pelvis_rotation	pelvis_tx	pelvis_ty	pelvis_tz	hip_flexion_r	hip_adduction_r	hip_rotation_r	knee_angle_r	ankle_angle_r	subtalar_angle_r	mtp_angle_r	hip_flexion_l	hip_adduction_l	hip_rotation_l	knee_angle_l	ankle_angle_l	subtalar_angle_l	mtp_angle_l	lumbar_extension	lumbar_bending	lumbar_rotation	arm_flex_r	arm_add_r	arm_rot_r	elbow_flex_r	pro_sup_r	wrist_flex_r	wrist_dev_r	arm_flex_l	arm_add_l	arm_rot_l	elbow_flex_l	pro_sup_l	wrist_flex_l	wrist_dev_l
0	1.10689	1.44594	-2.48857	0.680257	1.81259	0.93634	-0.218926	-0.190104	-0.0915866	0.0354267	0.120142	0	0	-0.199226	0.114617	-0.168306	0	-0.01	0	0	-0.0402844	-0.0603172	-0.0642217	-0.235087	-0.330918	0.42699	0.650985	1.43674	0	0	-0.155496	-0.285398	0.177453	0.645256	1.49742	0	0
0.01	1.09867	1.44597	-2.48341	0.681302	1.81247	0.936104	-0.220954	-0.191449	-0.0905344	0.0321368	0.118621	0	0	-0.200626	0.116057	-0.169408	0	-0.00864673	0	0	-0.0412591	-0.0579667	-0.0655206	-0.220022	-0.322598	0.415276	0.632461	1.43828	0	0	-0.154637	-0.283329	0.179412	0.640722	1.50204	0	0
0.02	1.11215	1.44756	-2.49885	0.682059	1.81205	0.935843	-0.220536	-0.192546	-0.088519	0.0283868	0.116971	0	0	-0.198706	0.117201	-0.170319	0	-0.00752128	0	0	-0.038259	-0.0588265	-0.0652436	-0.217988	-0.319999	0.407617	0.634596	1.44529	0	0	-0.152747	-0.282589	0.1806	0.630464	1.50923	0	0
0.03	1.12353	1.44915	-2.51213	0.682724	1.81153	0.935583	-0.220909	-0.193181	-0.0856299	0.023839	0.115103	0	0	-0.19712	0.11796	-0.171065	0	-0.00621168	0	0	-0.0354062	-0.059579	-0.0649679	-0.216727	-0.317961	0.397958	0.642049	1.44708	0	0	-0.151223	-0.282068	0.181634	0.622614	1.51595	0	0
0.04	1.13081	1.45059	-2.52101	0.683284	1.81102	0.935376	-0.222298	-0.193356	-0.0826113	0.0184944	0.112756	0	0	-0.196115	0.118205	-0.171742	0	-0.00478261	0	0	-0.0340325	-0.0601397	-0.0667898	-0.213805	-0.316162	0.389778	0.650095	1.44378	0	0	-0.152248	-0.282382	0.181562	0.620394	1.51941	0	0
0.05	1.12982	1.45149	-2.52301	0.683561	1.81074	0.935194	-0.223942	-0.193892	-0.0765308	0.0134121	0.109836	0	0	-0.195798	0.118655	-0.174743	0	-0.00267974	0	0	-0.0347427	-0.0600186	-0.0671381	-0.213296	-0.324175	0.404496	0.672691	1.43712	0	0	-0.151935	-0.282319	0.182187	0.618493	1.52126	0	0
0.06	1.13048	1.45208	-2.53045	0.683573	1.81064	0.9351	-0.223287	-0.195521	-0.0680025	0.010155	0.107624	0	0	-0.195402	0.119904	-0.180839	0	-0.00161974	0	0	-0.0354463	-0.0611624	-0.0627528	-0.205671	-0.318389	0.401829	0.663977	1.44183	0	0	-0.150673	-0.28164	0.182536	0.61554	1.52356	0	0
0.07	1.13302	1.45307	-2.53698	0.68354	1.81026	0.934957	-0.223449	-0.196685	-0.063301	0.0063403	0.105431	0	0	-0.194775	0.12078	-0.183841	0	-0.000552041	0	0	-0.0353496	-0.0617433	-0.0606562	-0.201768	-0.318059	0.406374	0.662694	1.4578	0	0	-0.150039	-0.281028	0.184121	0.613487	1.52651	0	0
0.08	1.14002	1.45335	-2.54703	0.684659	1.81021	0.934818	-0.22351	-0.198046	-0.0621423	0.00438772	0.104382	0	0	-0.194558	0.121896	-0.18472	0	-0.000103684	0	0	-0.0349723	-0.0631503	-0.0597713	-0.198611	-0.317469	0.407012	0.664881	1.47346	0	0	-0.151051	-0.281397	0.186847	0.613018	1.52944	0	0
0.09	1.14999	1.45427	-2.55875	0.685213	1.80992	0.934625	-0.223232	-0.198985	-0.0610425	0.00225022	0.103054	0	0	-0.193337	0.122796	-0.185217	0	0.000973806	0	0	-0.0341371	-0.0644113	-0.0599697	-0.195854	-0.316333	0.403537	0.669253	1.48545	0	0	-0.15153	-0.281764	0.188168	0.609456	1.53125	0	0
0.1	1.15795	1.45507	-2.56999	0.685662	1.80972	0.934449	-0.222425	-0.200258	-0.0581174	0.000423954	0.10166	0	0	-0.192235	0.123988	-0.187242	0	0.00191719	0	0	-0.0339392	-0.0654363	-0.0585263	-0.193195	-0.315829	0.399831	0.674777	1.49463	0	0	-0.151748	-0.281515	0.189399	0.60739	1.53264	0	0
0.11	1.15853	1.45564	-2.57464	0.686073	1.80907	0.934344	-0.222138	-0.201382	-0.0592982	0	0.10152	0	0	-0.192966	0.125075	-0.187331	0	0.000943329	0	0	-0.0330487	-0.0659042	-0.0560704	-0.191882	-0.315826	0.396627	0.678948	1.50211	0	0	-0.154519	-0.280425	0.191099	0.607755	1.53372	0	0
0.12	1.18506	1.45823	-2.60005	0.686891	1.81006	0.934033	-0.218033	-0.201617	-0.0521	0	0.0977646	0	0	-0.186926	0.125239	-0.189924	0	0.00668361	0	0	-0.0333031	-0.0667268	-0.0591759	-0.186138	-0.314468	0.394339	0.683986	1.50735	0	0	-0.151358	-0.281957	0.193445	0.607054	1.53405	0	0
0.13	1.1913	1.45924	-2.60837	0.687629	1.80922	0.93383	-0.217221	-0.20239	-0.0580615	0	0.0983921	0	0	-0.186828	0.126202	-0.188303	0	0.00549189	0	0	-0.0315041	-0.0669292	-0.0581316	-0.185449	-0.314465	0.390013	0.687539	1.50911	0	0	-0.153927	-0.280342	0.192392	0.601599	1.53403	0	0
0.14	1.20639	1.46069	-2.62403	0.688223	1.80915	0.933643	-0.215351	-0.203201	-0.0593409	0	0.0976635	0	0	-0.184546	0.127033	-0.188359	0	0.00715608	0	0	-0.0306057	-0.0675091	-0.0589272	-0.183134	-0.313997	0.386696	0.691429	1.50976	0	0	-0.154488	-0.279299	0.191246	0.598135	1.53403	0	0
0.15	1.18092	1.47129	-2.60678	0.68921	1.8068	0.932532	-0.212761	-0.193696	-0.0711321	2.68502e-05	0.102017	0	0	-0.183013	0.120645	-0.188891	0	0.00916178	0	0	-0.0180206	-0.0550575	-0.0531218	-0.18906	-0.320002	0.384524	0.697535	1.51031	0	0	-0.167961	-0.273756	0.190061	0.595771	1.5338	0	0
0.16	1.2247	1.46319	-2.64891	0.689059	1.80879	0.933254	-0.21093	-0.204877	-0.060225	0	0.097789	0	0	-0.181767	0.128444	-0.191567	0	0.00898468	0	0	-0.0297957	-0.0681555	-0.0548639	-0.178432	-0.315264	0.387429	0.698114	1.51154	0	0	-0.157516	-0.278299	0.192855	0.59615	1.53346	0	0
0.17	1.23412	1.46368	-2.66198	0.689912	1.80866	0.93311	-0.209215	-0.206184	-0.0598601	0	0.097334	0	0	-0.181022	0.129461	-0.192504	0	0.00915624	0	0	-0.0300373	-0.0696256	-0.0525137	-0.179916	-0.308428	0.302745	0.719877	1.4146	0	0	-0.159864	-0.278114	0.192716	0.595715	1.5338	0	0
0.18	1.22611	1.46377	-2.65784	0.690286	1.80846	0.933064	-0.209623	-0.207275	-0.0584743	0	0.0972589	0	0	-0.182236	0.130411	-0.19435	0	0.00997377	0	0	-0.0311823	-0.0697439	-0.0482942	-0.176605	-0.314209	0.378738	0.70581	1.45113	0	0	-0.160343	-0.277545	0.195766	0.593437	1.53484	0	0
0.19	1.22635	1.46409	-2.66095	0.690803	1.80785	0.932829	-0.209083	-0.208632	-0.0564619	0	0.0966334	0	0	-0.18211	0.131603	-0.195717	0	0.0114991	0	0	-0.0319704	-0.0703861	-0.0472624	-0.172985	-0.317063	0.383303	0.711546	1.45502	0	0	-0.163034	-0.27683	0.194416	0.593638	1.53492	0	0
0.2	1.23031	1.46437	-2.66708	0.691494	1.80762	0.932669	-0.20851	-0.210144	-0.0551371	0	0.0959438	0	0	-0.181735	0.132908	-0.196285	0	0.0129386	0	0	-0.0327721	-0.0711485	-0.0458927	-0.171437	-0.317669	0.380242	0.715915	1.45233	0	0	-0.164725	-0.276056	0.193559	0.593874	1.53404	0	0
0.21	1.2326	1.46432	-2.67179	0.692435	1.80759	0.932606	-0.208552	-0.21184	-0.0552299	0	0.0958894	0	0	-0.18227	0.134342	-0.196383	0	0.0139417	0	0	-0.0333645	-0.0719636	-0.0441064	-0.170826	-0.319037	0.380571	0.718307	1.45077	0	0	-0.166872	-0.274962	0.193061	0.593531	1.53283	0	0
0.22	1.2348	1.46451	-2.67611	0.69328	1.80721	0.932426	-0.208387	-0.21338	-0.0553693	0	0.0959641	0	0	-0.182446	0.135772	-0.196459	0	0.0151869	0	0	-0.0337963	-0.0725759	-0.042291	-0.170482	-0.320818	0.382503	0.721019	1.45029	0	0	-0.169108	-0.27419	0.193407	0.593473	1.53207	0	0
0.23	1.19991	1.45922	-2.65226	0.692753	1.80542	0.932963	-0.21334	-0.21896	-0.0489329	0	0.0952091	0	0	-0.189516	0.141399	-0.204632	0	0.0162021	0	0	-0.0384321	-0.0776166	-0.0322029	-0.170046	-0.320316	0.384666	0.720991	1.45066	0	0	-0.172653	-0.274747	0.193625	0.593378	1.53188	0	0
0.24	1.21761	1.46097	-2.67064	0.69377	1.80602	0.932595	-0.209881	-0.219458	-0.0407668	0	0.0924791	0	0	-0.184983	0.14178	-0.208151	0	0.0216239	0	0	-0.0403196	-0.0782799	-0.0317365	-0.166122	-0.320547	0.38605	0.723719	1.45012	0	0	-0.170262	-0.276112	0.196145	0.594275	1.53195	0	0
0.25	1.26451	1.46686	-2.71071	0.695549	1.80727	0.931745	-0.203515	-0.216976	-0.0451358	0	0.0926423	0	0	-0.176865	0.139086	-0.201543	0	0.0236101	0	0	-0.0367536	-0.0749973	-0.0371961	-0.16457	-0.323041	0.386728	0.725001	1.44869	0	0	-0.169355	-0.274811	0.198328	0.593582	1.53202	0	0
0.26	1.27064	1.46728	-2.71865	0.696348	1.80695	0.93155	-0.202832	-0.218241	-0.0446228	0	0.0926633	0	0	-0.176366	0.140318	-0.202351	0	0.0254474	0	0	-0.0369325	-0.0759167	-0.0347071	-0.163798	-0.323585	0.386713	0.72344	1.44621	0	0	-0.170594	-0.274367	0.198767	0.592831	1.53192	0	0
0.27	1.27794	1.46786	-2.72795	0.697218	1.80659	0.931322	-0.201938	-0.21951	-0.0434979	0	0.0926179	0	0	-0.175681	0.141609	-0.20357	0	0.027387	0	0	-0.0367833	-0.076641	-0.0317691	-0.163279	-0.323885	0.386285	0.721412	1.44412	0	0	-0.171797	-0.273762	0.199557	0.592309	1.53197	0	0
0.28	1.28651	1.46834	-2.73817	0.698219	1.80623	0.931086	-0.201094	-0.220956	-0.0427097	0	0.092522	0	0	-0.174973	0.143079	-0.203501	0	0.0290346	0	0	-0.03645	-0.0773357	-0.0290206	-0.163374	-0.324554	0.386037	0.720044	1.44292	0	0	-0.17362	-0.273686	0.202273	0.593584	1.53303	0	0
0.29	1.31493	1.46163	-2.75489	0.701617	1.80286	0.930947	-0.210727	-0.229111	-0.067801	0	0.0938811	0	0	-0.17901	0.152215	-0.188503	0	0.0304846	0	0	-0.0299436	-0.0855298	-0.0392604	-0.172287	-0.324862	0.384756	0.719474	1.44273	0	0	-0.183904	-0.274056	0.204229	0.595104	1.53446	0	0
0.3	1.30351	1.46892	-2.75843	0.700254	1.80542	0.930624	-0.199542	-0.224194	-0.0416736	0	0.09382	0	0	-0.173886	0.146324	-0.203433	0	0.0322211	0	0	-0.0355809	-0.079109	-0.0226629	-0.164539	-0.326129	0.386965	0.717174	1.4421	0	0	-0.17675	-0.273173	0.205828	0.594884	1.53438	0	0
